<svg xmlns="http://www.w3.org/2000/svg" width="597" height="58" fill="none">
  <path fill="#000" d="M72.36 56H56.232l-1.248-30.144c-.192-5.952-.416-10.464-.672-13.536h-.288c-.768 2.432-1.664 6.208-2.688 11.328l-.48 2.4L44.232 56H28.104l-5.568-26.976-.96-4.8c-1.344-5.952-2.272-9.92-2.784-11.904h-.288c-.256 3.2-.48 8.416-.672 15.648-.064.448-.096 1.152-.096 2.112L16.872 56H.648L2.952 1.27999h27.456L35.112 24.896l1.152 6.336c.512-1.984.992-4.192 1.44-6.624L42.12 1.27999h28.032L72.36 56Zm34.222 1.248c-9.5362 0-16.7042-2.24-21.5042-6.72-4.736-4.544-7.104-11.808-7.104-21.792 0-9.792 2.624-16.928 7.872-21.408 5.248-4.48 12.192-6.720002 20.8322-6.720002 18.176 0 27.264 9.056002 27.264 27.168002 0 9.152-2.24 16.352-6.72 21.6-4.416 5.248-11.296 7.872-20.64 7.872Zm-.384-11.328c1.792 0 3.296-.288 4.512-.864 1.216-.64 2.176-1.728 2.88-3.264 1.344-2.624 2.016-6.912 2.016-12.864 0-5.824-.672-10.048-2.016-12.672-1.344-2.688-3.808-4.096-7.392-4.224-1.344 0-2.752.16-4.224.48-1.408.256-2.3042.64-2.6882 1.152-.768.896-1.376 2.816-1.824 5.76-.384 2.88-.576 6.048-.576 9.504 0 5.376.512 9.312 1.536 11.808.704 1.856 1.6962 3.2 2.9762 4.032 1.28.768 2.88 1.152 4.8 1.152Zm62.071 11.328c-9.536 0-16.704-2.24-21.504-6.72-4.736-4.544-7.104-11.808-7.104-21.792 0-9.792 2.624-16.928 7.872-21.408 5.248-4.48 12.192-6.720002 20.832-6.720002 18.176 0 27.264 9.056002 27.264 27.168002 0 9.152-2.24 16.352-6.72 21.6-4.416 5.248-11.296 7.872-20.64 7.872Zm-.384-11.328c1.792 0 3.296-.288 4.512-.864 1.216-.64 2.176-1.728 2.88-3.264 1.344-2.624 2.016-6.912 2.016-12.864 0-5.824-.672-10.048-2.016-12.672-1.344-2.688-3.808-4.096-7.392-4.224-1.344 0-2.752.16-4.224.48-1.408.256-2.304.64-2.688 1.152-.768.896-1.376 2.816-1.824 5.76-.384 2.88-.576 6.048-.576 9.504 0 5.376.512 9.312 1.536 11.808.704 1.856 1.696 3.2 2.976 4.032 1.28.768 2.88 1.152 4.8 1.152Zm54.584-44.64001c7.488 0 13.6.70401 18.336 2.11201 4.8 1.408 8.512 4.064 11.136 7.968 2.688 3.904 4.032 9.504 4.032 16.8 0 7.808-1.408 13.76-4.224 17.856-2.816 4.032-6.592 6.72-11.328 8.064-4.736 1.28-10.72 1.92-17.952 1.92h-19.2V1.27999h19.2ZM235.333 42.944c.768-.768 1.312-2.752 1.632-5.952.32-3.2.48-6.144.48-8.832 0-3.392-.256-6.08-.768-8.064-.448-2.048-1.28-3.68-2.496-4.896-1.92-2.112-5.216-3.168-9.888-3.168-.832 0-2.08.064-3.744.192v31.872c1.088.128 2.784.192 5.088.192 2.368 0 4.448-.096 6.24-.288 1.856-.256 3.008-.608 3.456-1.056Zm54.988-4.416V56h-17.28V38.72L254.609 1.27999h17.568L279.473 19.04c.768 1.792 1.472 3.68 2.112 5.664h.192c.704-2.176 1.408-4.128 2.112-5.856l7.2-17.56801h17.472L290.321 38.528ZM318.995 56V.319997h23.28c3.893 0 7.253.720003 10.08 2.160003 3.253 1.65333 5.84 4.02666 7.76 7.12 1.92 3.04 2.88 6.4 2.88 10.08 0 3.68-.96 7.0667-2.88 10.16-1.867 3.0933-4.427 5.4667-7.68 7.12-2.773 1.44-6.16 2.16-10.16 2.16h-8.72V56h-14.56Zm60.499 0V.319997h2.96V53.04h38.8V56h-41.76ZM454.393.319997h3.12L480.393 56h-3.2l-7.52-18.4h-27.44l-7.6 18.4h-3.12L454.393.319997ZM443.433 34.72h25.04l-12.56-30.56-12.48 30.56ZM493.371 56V.319997h3.12L535.371 38.08V.319997h2.96V56h-2.96V42.24l-39.04-38.08V56h-2.96ZM596.83.319997V3.28h-21.04V56h-2.88V3.28h-21.04V.319997h44.96Z"/>
</svg>