<svg width="644" height="149" viewBox="0 0 644 149" fill="none" xmlns="http://www.w3.org/2000/svg">
<path id="MOODYPlant" fill="black" d="M75.36 94H59.232L57.984 63.856C57.792 57.904 57.568 53.392 57.312 50.32H57.024C56.256 52.752 55.36 56.528 54.336 61.648L53.856 64.048L47.232 94H31.104L25.536 67.024L24.576 62.224C23.232 56.272 22.304 52.304 21.792 50.32H21.504C21.248 53.52 21.024 58.736 20.832 65.968C20.768 66.416 20.736 67.12 20.736 68.08L19.872 94H3.648L5.952 39.28H33.408L38.112 62.896L39.264 69.232C39.776 67.248 40.256 65.04 40.704 62.608L45.12 39.28H73.152L75.36 94Z" />
<path id="MOODYPlant" fill="black" d="M109.582 95.248C100.046 95.248 92.8778 93.008 88.0778 88.528C83.3418 83.984 80.9738 76.72 80.9738 66.736C80.9738 56.944 83.5978 49.808 88.8458 45.328C94.0938 40.848 101.038 38.608 109.678 38.608C127.854 38.608 136.942 47.664 136.942 65.776C136.942 74.928 134.702 82.128 130.222 87.376C125.806 92.624 118.926 95.248 109.582 95.248ZM109.198 83.92C110.99 83.92 112.494 83.632 113.71 83.056C114.926 82.416 115.886 81.328 116.59 79.792C117.934 77.168 118.606 72.88 118.606 66.928C118.606 61.104 117.934 56.88 116.59 54.256C115.246 51.568 112.782 50.16 109.198 50.032C107.854 50.032 106.446 50.192 104.974 50.512C103.566 50.768 102.67 51.152 102.286 51.664C101.518 52.56 100.91 54.48 100.462 57.424C100.078 60.304 99.8858 63.472 99.8858 66.928C99.8858 72.304 100.398 76.24 101.422 78.736C102.126 80.592 103.118 81.936 104.398 82.768C105.678 83.536 107.278 83.92 109.198 83.92Z" />
<path id="MOODYPlant" fill="black" d="M171.269 95.248C161.733 95.248 154.565 93.008 149.765 88.528C145.029 83.984 142.661 76.72 142.661 66.736C142.661 56.944 145.285 49.808 150.533 45.328C155.781 40.848 162.725 38.608 171.365 38.608C189.541 38.608 198.629 47.664 198.629 65.776C198.629 74.928 196.389 82.128 191.909 87.376C187.493 92.624 180.613 95.248 171.269 95.248ZM170.885 83.92C172.677 83.92 174.181 83.632 175.397 83.056C176.613 82.416 177.573 81.328 178.277 79.792C179.621 77.168 180.293 72.88 180.293 66.928C180.293 61.104 179.621 56.88 178.277 54.256C176.933 51.568 174.469 50.16 170.885 50.032C169.541 50.032 168.133 50.192 166.661 50.512C165.253 50.768 164.357 51.152 163.973 51.664C163.205 52.56 162.597 54.48 162.149 57.424C161.765 60.304 161.573 63.472 161.573 66.928C161.573 72.304 162.085 76.24 163.109 78.736C163.813 80.592 164.805 81.936 166.085 82.768C167.365 83.536 168.965 83.92 170.885 83.92Z" />
<path id="MOODYPlant" fill="black" d="M225.469 39.28C232.957 39.28 239.069 39.984 243.805 41.392C248.605 42.8 252.317 45.456 254.941 49.36C257.629 53.264 258.973 58.864 258.973 66.16C258.973 73.968 257.565 79.92 254.749 84.016C251.933 88.048 248.157 90.736 243.421 92.08C238.685 93.36 232.701 94 225.469 94H206.269V39.28H225.469ZM238.333 80.944C239.101 80.176 239.645 78.192 239.965 74.992C240.285 71.792 240.445 68.848 240.445 66.16C240.445 62.768 240.189 60.08 239.677 58.096C239.229 56.048 238.397 54.416 237.181 53.2C235.261 51.088 231.965 50.032 227.293 50.032C226.461 50.032 225.213 50.096 223.549 50.224V82.096C224.637 82.224 226.333 82.288 228.637 82.288C231.005 82.288 233.085 82.192 234.877 82C236.733 81.744 237.885 81.392 238.333 80.944Z" />
<path id="MOODYPlant" fill="black" d="M293.321 76.528V94H276.041V76.72L257.609 39.28H275.177L282.473 57.04C283.241 58.832 283.945 60.72 284.585 62.704H284.777C285.481 60.528 286.185 58.576 286.889 56.848L294.089 39.28H311.561L293.321 76.528Z" />
<path id="MOODYPlant" fill="black" d="M321.995 94V38.32H345.275C349.168 38.32 352.528 39.04 355.355 40.48C358.608 42.1333 361.195 44.5067 363.115 47.6C365.035 50.64 365.995 54 365.995 57.68C365.995 61.36 365.035 64.7467 363.115 67.84C361.248 70.9333 358.688 73.3067 355.435 74.96C352.662 76.4 349.275 77.12 345.275 77.12H336.555V94H321.995Z" />
<path id="MOODYPlant" fill="black" d="M382.494 94V38.32H385.454V91.04H424.254V94H382.494Z" />
<path id="MOODYPlant" fill="black" d="M457.393 38.32H460.513L483.393 94H480.193L472.673 75.6H445.233L437.633 94H434.513L457.393 38.32ZM446.433 72.72H471.473L458.913 42.16L446.433 72.72Z" />
<path id="MOODYPlant" fill="black" d="M496.371 94V38.32H499.491L538.371 76.08V38.32H541.331V94H538.371V80.24L499.331 42.16V94H496.371Z" />
<path id="MOODYPlant" fill="black" d="M599.83 38.32V41.28H578.79V94H575.91V41.28H554.87V38.32H599.83Z" />
</svg>
